# xmcd
#
# Track frame offsets:
#	150
#	12475
#	23656
#	35131
#	47403
#	57870
#	70993
#	81518
#	93199
#	103481
#	119030
#	130318
#	141307
#	153179
#	164041
#	176062
#	188361
#	200520
#	211330
#	225657
#	236199
#	249942
#	264598
#	277740
#	290804
#	304656
#
# Disc length: 4229 seconds
#
# Revision: 2
# Processed by: cddbd v1.5.2PL0 Copyright (c) Steve Scherf et al.
# Submitted via: audiograbber 1.83.01
#
DISCID=8110831a
DTITLE=T-Bone Walker - Get These Blues Off Me CD1
DYEAR=2015
DGENRE=Blues
TTITLE0=Glamour Girl
TTITLE1=Strollin´ With Bones
TTITLE2=The Hustle Is On
TTITLE3=Baby Broke My Heart
TTITLE4=The Sun Went Down
TTITLE5=You Don´t Love Me
TTITLE6=Travellin´ Blues
TTITLE7=Evil Hearted Woman
TTITLE8=I Walked Away
TTITLE9=Too Lazy
TTITLE10=No Reason
TTITLE11=Look Me In The Eye
TTITLE12=You Don´t Understand
TTITLE13=Welcome Home Blues
TTITLE14=Alimony Blues
TTITLE15=Life Is Too Short
TTITLE16=I Get So Weary
TTITLE17=You Just Wanted To Use Me
TTITLE18=Cold Cold Feeling
TTITLE19=News For My Baby
TTITLE20=Get These Blues Off Me
TTITLE21=I Got The Blues Again
TTITLE22=Lollie Lou
TTITLE23=I Got The Blues
TTITLE24=Street Walking Woman
TTITLE25=The Blues Is A Woman
EXTD=
EXTT0=
EXTT1=
EXTT2=
EXTT3=
EXTT4=
EXTT5=
EXTT6=
EXTT7=
EXTT8=
EXTT9=
EXTT10=
EXTT11=
EXTT12=
EXTT13=
EXTT14=
EXTT15=
EXTT16=
EXTT17=
EXTT18=
EXTT19=
EXTT20=
EXTT21=
EXTT22=
EXTT23=
EXTT24=
EXTT25=
PLAYORDER=
